<svg width="40" height="40" viewBox="0 0 40 40" fill="none" xmlns="http://www.w3.org/2000/svg">
<rect width="40" height="40" rx="4" fill="#ECF0F6"/>
<g clip-path="url(#clip0_156_386)">
<path d="M23.6104 8.70637L14.0169 19.0995C13.7952 19.3397 13.6735 19.6599 13.6735 20.0088C13.6735 20.3506 13.7952 20.671 14.0169 20.9108L23.6013 31.2943C23.8232 31.5344 24.1189 31.6667 24.4345 31.6667C24.75 31.6667 25.046 31.5346 25.2676 31.2943L25.9735 30.5296C26.1952 30.2894 26.3176 29.9688 26.3176 29.627C26.3176 29.2851 26.1952 28.9647 25.9735 28.7244L17.925 20.0052L25.9828 11.2763C26.2043 11.0361 26.3265 10.7157 26.3265 10.3737C26.3265 10.0318 26.2043 9.7116 25.9828 9.47125L25.2766 8.70637C24.8173 8.20898 24.0697 8.20898 23.6104 8.70637Z" fill="#A5A59F"/>
</g>
<defs>
<clipPath id="clip0_156_386">
<rect width="23.3333" height="21.5385" fill="white" transform="translate(9.23077 31.6667) rotate(-90)"/>
</clipPath>
</defs>
</svg>
