<svg width="54" height="60" viewBox="0 0 54 60" fill="none" xmlns="http://www.w3.org/2000/svg">
<g clip-path="url(#clip0_196_86)">
<path d="M26.9912 50.223C26.9912 58.098 36.0392 61.723 36.9912 54.828C37.4142 51.767 40.2272 53.299 41.6022 50.441C42.3472 48.892 41.9512 47.637 43.4512 46.868C46.2172 45.448 48.1842 41.407 47.9912 38.223C47.8872 36.497 50.7832 33.664 51.7102 32.223C53.4182 29.565 53.4182 25.881 51.7102 23.223C50.7842 21.782 50.3392 18.949 50.4442 17.223C50.6372 14.039 48.9632 10.643 46.1972 9.223C44.6972 8.453 43.4822 8.772 42.7372 7.223C41.3622 4.366 40.0752 4.024 36.9922 4.223C35.3212 4.331 34.5752 1.246 31.9922 1.246C31.9782 1.246 31.9722 1.223 31.9582 1.223C29.2832 1.223 26.9922 2.668 26.9922 4.223V50.223H26.9912Z" fill="#EFC9B3"/>
<path d="M33.4912 59.477C33.3812 59.477 33.2722 59.473 33.1632 59.466C29.6992 59.228 25.9902 55.456 25.9902 50.222V4.222C25.9902 2.054 28.7222 0.222 31.9562 0.222L32.4612 0.272C34.0302 0.453 35.0212 1.511 35.7622 2.304C36.1932 2.764 36.6112 3.283 36.9252 3.224C40.2752 3.007 42.0402 3.471 43.6362 6.788C43.9392 7.417 44.2702 7.513 45.0712 7.744C45.5362 7.878 46.0642 8.03 46.6522 8.332C49.6962 9.895 51.6652 13.575 51.4412 17.282C51.3452 18.87 51.7772 21.477 52.5512 22.68C54.4582 25.648 54.4582 29.794 52.5512 32.762C52.2562 33.22 51.8242 33.753 51.3242 34.371C50.4322 35.473 48.9382 37.316 48.9892 38.16C49.2162 41.896 46.9362 46.201 43.9072 47.756C43.3622 48.036 43.2702 48.319 43.0642 49.176C42.9502 49.65 42.8082 50.239 42.5032 50.873C41.6802 52.584 40.3892 53.074 39.4462 53.434C38.5102 53.789 38.1232 53.937 37.9812 54.963C37.5202 58.304 35.4182 59.477 33.4912 59.477ZM31.5222 2.237C29.4492 2.374 27.9912 3.468 27.9912 4.222V50.222C27.9912 54.655 31.1312 57.322 33.3012 57.471C34.7672 57.544 35.7392 56.585 36.0002 54.691C36.3042 52.491 37.7092 51.956 38.7352 51.566C39.5662 51.25 40.2232 51 40.7002 50.007C40.9122 49.566 41.0172 49.129 41.1192 48.707C41.3472 47.762 41.6062 46.689 42.9932 45.978C45.3002 44.794 47.1682 41.198 46.9922 38.283C46.8942 36.663 48.4212 34.777 49.7692 33.113C50.2132 32.565 50.6322 32.048 50.8672 31.681C52.3662 29.35 52.3662 26.094 50.8672 23.763C49.8242 22.141 49.3242 19.133 49.4442 17.161C49.6192 14.268 48.0612 11.304 45.7382 10.111C45.3232 9.898 44.9122 9.78 44.5162 9.665C43.5822 9.395 42.5242 9.09 41.8342 7.655C40.6792 5.256 39.8452 5.043 37.0542 5.219C35.8362 5.277 35.0152 4.432 34.3012 3.669C33.4722 2.782 32.9032 2.244 31.9902 2.244L31.5222 2.237Z" fill="#CF8C6D"/>
<path d="M26.9912 50.223C26.9912 58.098 17.9432 61.723 16.9912 54.828C16.5682 51.767 13.7552 53.299 12.3802 50.441C11.6352 48.892 12.0312 47.637 10.5312 46.868C7.76521 45.448 5.79821 41.407 5.99121 38.223C6.09521 36.497 3.19921 33.664 2.27221 32.223C0.564211 29.565 0.564211 25.881 2.27221 23.223C3.19821 21.782 3.64321 18.949 3.53821 17.223C3.34521 14.039 5.01921 10.643 7.78521 9.223C9.28521 8.453 10.5002 8.772 11.2452 7.223C12.6202 4.366 13.9072 4.024 16.9902 4.223C18.6612 4.331 19.4072 1.64 21.9902 1.246C22.0032 1.244 22.0122 1.231 22.0242 1.223C23.4732 0.241002 26.9902 2.668 26.9902 4.223V50.223H26.9912Z" fill="#EFC9B3"/>
<path d="M20.4903 59.477C18.5633 59.477 16.4612 58.304 16.0002 54.964C15.8582 53.938 15.4713 53.79 14.5353 53.435C13.5933 53.077 12.3022 52.585 11.4792 50.874C11.1742 50.24 11.0322 49.65 10.9172 49.177C10.7102 48.321 10.6192 48.037 10.0742 47.757C7.04625 46.202 4.76625 41.898 4.99225 38.161C5.04325 37.317 3.54925 35.473 2.65725 34.372C2.15725 33.754 1.72525 33.221 1.43025 32.763C-0.47675 29.795 -0.47675 25.649 1.43025 22.681C2.20425 21.478 2.63625 18.87 2.54025 17.283C2.31525 13.576 4.28525 9.895 7.32925 8.333C7.91625 8.031 8.44425 7.879 8.91025 7.745C9.71125 7.514 10.0422 7.418 10.3442 6.789C11.9412 3.474 13.7043 3.01 17.0553 3.225C17.3883 3.265 17.7533 2.898 18.3363 2.321C19.0743 1.591 20.0723 0.602 21.6303 0.295C22.5173 -0.191 23.7553 -0.0700002 25.0773 0.631C26.5283 1.401 27.9923 2.81 27.9923 4.224V50.224C27.9923 55.458 24.2833 59.23 20.8193 59.468C20.7093 59.473 20.6003 59.477 20.4903 59.477ZM15.6932 5.172C13.8512 5.172 13.1102 5.653 12.1462 7.656C11.4572 9.091 10.3982 9.396 9.46425 9.666C9.06825 9.781 8.65725 9.899 8.24225 10.112C5.92025 11.304 4.36125 14.269 4.53625 17.162C4.65625 19.134 4.15625 22.141 3.11325 23.764C1.61425 26.095 1.61425 29.351 3.11325 31.682C3.34825 32.048 3.76725 32.566 4.21125 33.114C5.55925 34.778 7.08625 36.664 6.98825 38.284C6.81225 41.199 8.68025 44.796 10.9872 45.979C12.3742 46.691 12.6332 47.763 12.8612 48.708C12.9632 49.13 13.0682 49.566 13.2812 50.008C13.7582 51 14.4152 51.25 15.2462 51.567C16.2722 51.957 17.6783 52.492 17.9813 54.692C18.2423 56.587 19.2033 57.548 20.6803 57.472C22.8503 57.323 25.9903 54.656 25.9903 50.223V4.223C25.9903 3.925 25.2873 3.006 24.1383 2.397C23.3513 1.98 22.8133 1.949 22.6213 2.032L22.4653 2.176L22.1363 2.237C21.1043 2.394 20.4423 3.05 19.7413 3.743C19.0033 4.474 18.1673 5.3 16.9243 5.222C16.4653 5.19 16.0572 5.172 15.6932 5.172Z" fill="#CF8C6D"/>
<path d="M41.9912 49.223C41.4392 49.223 40.9912 48.776 40.9912 48.223C40.9912 45.466 38.7482 43.223 35.9912 43.223C35.4392 43.223 34.9912 42.776 34.9912 42.223C34.9912 41.67 35.4392 41.223 35.9912 41.223C39.8512 41.223 42.9912 44.364 42.9912 48.223C42.9912 48.775 42.5432 49.223 41.9912 49.223Z" fill="#CF8C6D"/>
<path d="M11.9912 49.223C11.4392 49.223 10.9912 48.776 10.9912 48.223C10.9912 44.364 14.1312 41.223 17.9912 41.223C18.5432 41.223 18.9912 41.67 18.9912 42.223C18.9912 42.776 18.5432 43.223 17.9912 43.223C15.2342 43.223 12.9912 45.466 12.9912 48.223C12.9912 48.775 12.5432 49.223 11.9912 49.223Z" fill="#CF8C6D"/>
<path d="M38.9912 13.223C38.4392 13.223 37.9912 12.776 37.9912 12.223C37.9912 9.466 40.2342 7.223 42.9912 7.223C43.5432 7.223 43.9912 7.67 43.9912 8.223C43.9912 8.776 43.5432 9.223 42.9912 9.223C41.3372 9.223 39.9912 10.569 39.9912 12.223C39.9912 12.775 39.5432 13.223 38.9912 13.223Z" fill="#CF8C6D"/>
<path d="M15.9912 14.223C15.4392 14.223 14.9912 13.776 14.9912 13.223C14.9912 11.017 13.1972 9.223 10.9912 9.223C10.4392 9.223 9.99121 8.776 9.99121 8.223C9.99121 7.67 10.4392 7.223 10.9912 7.223C14.3002 7.223 16.9912 9.914 16.9912 13.223C16.9912 13.775 16.5432 14.223 15.9912 14.223Z" fill="#CF8C6D"/>
<path d="M47.9912 38.223C47.4392 38.223 46.9912 37.776 46.9912 37.223C46.9912 33.914 44.3002 31.223 40.9912 31.223C36.5802 31.223 32.9912 27.634 32.9912 23.223C32.9912 22.67 33.4392 22.223 33.9912 22.223C34.5432 22.223 34.9912 22.67 34.9912 23.223C34.9912 26.532 37.6822 29.223 40.9912 29.223C45.4022 29.223 48.9912 32.812 48.9912 37.223C48.9912 37.775 48.5432 38.223 47.9912 38.223Z" fill="#CF8C6D"/>
<path d="M26.9913 12.223C22.5803 12.223 18.9913 15.812 18.9913 20.223C18.9913 23.532 16.3003 26.223 12.9913 26.223C12.4393 26.223 11.9913 26.67 11.9913 27.223C11.9913 27.776 12.4393 28.223 12.9913 28.223C17.4023 28.223 20.9913 24.634 20.9913 20.223C20.9913 16.914 23.6823 14.223 26.9913 14.223C27.5433 14.223 27.9913 13.776 27.9913 13.223C27.9913 12.67 27.5433 12.223 26.9913 12.223Z" fill="#F7E1D5"/>
<path d="M23.5283 27.859C23.1373 27.468 22.5053 27.468 22.1143 27.859C20.7453 29.227 19.9913 31.047 19.9913 32.98C19.9913 34.599 20.5263 36.133 21.5013 37.394C20.5263 38.655 19.9913 40.19 19.9913 41.808C19.9913 43.742 20.7453 45.561 22.1143 46.929C22.3093 47.124 22.5653 47.222 22.8213 47.222C23.0773 47.222 23.3333 47.124 23.5283 46.929C23.9193 46.538 23.9193 45.906 23.5283 45.515C22.5373 44.524 21.9913 43.207 21.9913 41.808C21.9913 40.409 22.5373 39.092 23.5283 38.101C23.9193 37.71 23.9193 37.078 23.5283 36.687C22.5373 35.696 21.9913 34.379 21.9913 32.98C21.9913 31.581 22.5373 30.264 23.5283 29.273C23.9183 28.883 23.9183 28.25 23.5283 27.859Z" fill="#F7E1D5"/>
<path d="M33.2164 31.202C32.8254 30.811 32.1934 30.811 31.8024 31.202C31.4114 31.593 31.4114 32.225 31.8024 32.616C33.6604 34.475 33.6604 37.5 31.8024 39.359C30.5234 40.638 29.8184 42.338 29.8184 44.144C29.8184 45.95 30.5234 47.65 31.8024 48.929C31.9974 49.124 32.2534 49.222 32.5094 49.222C32.7654 49.222 33.0214 49.124 33.2164 48.929C33.6074 48.538 33.6074 47.906 33.2164 47.515C32.3154 46.614 31.8184 45.416 31.8184 44.144C31.8184 42.872 32.3154 41.674 33.2164 40.773C35.8544 38.135 35.8544 33.841 33.2164 31.202Z" fill="#F7E1D5"/>
<path d="M44.8063 21.692C42.2233 22.145 39.7403 20.41 39.2853 17.821C38.9723 16.04 37.9853 14.487 36.5063 13.45C35.0273 12.413 33.2303 12.014 31.4493 12.326C30.9053 12.422 30.5413 12.94 30.6373 13.484C30.7333 14.028 31.2503 14.386 31.7953 14.297C33.0533 14.071 34.3163 14.358 35.3583 15.087C36.4003 15.818 37.0953 16.912 37.3163 18.167C37.8933 21.448 40.7563 23.766 43.9803 23.766C44.3673 23.766 44.7593 23.732 45.1533 23.663C45.6973 23.567 46.0613 23.049 45.9653 22.505C45.8693 21.961 45.3543 21.598 44.8063 21.692Z" fill="#F7E1D5"/>
<path d="M10.8613 22.796C12.5063 22.796 14.0563 21.784 14.6583 20.153C14.8493 19.634 14.5853 19.059 14.0673 18.868C13.5503 18.678 12.9733 18.942 12.7823 19.46C12.3913 20.518 11.2133 21.06 10.1583 20.669C8.06831 19.901 5.73831 20.972 4.96631 23.062C4.77531 23.581 5.04031 24.156 5.55831 24.347C5.67231 24.389 5.78931 24.409 5.90431 24.409C6.31131 24.409 6.69331 24.159 6.84231 23.756C7.23231 22.699 8.40631 22.154 9.46631 22.547C9.92631 22.715 10.3973 22.796 10.8613 22.796Z" fill="#F7E1D5"/>
<path d="M14.0463 38.1C12.9903 37.711 12.4473 36.534 12.8363 35.478V35.477C13.6083 33.386 12.5343 31.057 10.4433 30.284C9.92733 30.095 9.34933 30.358 9.15833 30.876C8.96733 31.395 9.23133 31.97 9.74933 32.161C10.8063 32.551 11.3493 33.728 10.9593 34.784C10.9593 34.785 10.9593 34.786 10.9593 34.786C10.1893 36.875 11.2623 39.204 13.3523 39.977C13.4663 40.019 13.5833 40.039 13.6993 40.039C14.1063 40.039 14.4883 39.789 14.6373 39.386C14.8293 38.867 14.5643 38.293 14.0463 38.1Z" fill="#F7E1D5"/>
<path d="M27 13C19.2697 13 13 19.2697 13 27C13 29.4224 13.6145 31.7023 14.701 33.6883L13 41L20.3117 39.299C22.2977 40.3855 24.5776 41 27 41C34.7303 41 41 34.7303 41 27C41 19.2697 34.7303 13 27 13Z" fill="#67BAEB"/>
<path d="M27.7182 30.0531H25.2901V28.6962C25.2901 28.1036 25.3564 27.657 25.4972 27.3736C25.6298 27.0816 25.9282 26.7037 26.3923 26.2313L27.9586 24.6082C28.2901 24.2389 28.4558 23.7751 28.4558 23.2254C28.4558 22.6758 28.2818 22.2206 27.942 21.8599C27.5939 21.4992 27.1547 21.3103 26.6077 21.3103C26.0608 21.3103 25.6133 21.482 25.2403 21.8341C24.8757 22.1863 24.6602 22.65 24.6022 23.2254H22C22.1409 21.9028 22.6381 20.8722 23.4917 20.1251C24.3453 19.3779 25.4061 19 26.6823 19C27.9586 19 28.9945 19.3607 29.7983 20.0821C30.6022 20.8035 31 21.8084 31 23.0966C31 23.9898 30.768 24.7284 30.2956 25.321C30.0221 25.6731 29.8149 25.9308 29.674 26.0768C29.5331 26.2228 29.3425 26.4117 29.1022 26.6436C28.8619 26.8755 28.663 27.073 28.4972 27.2448C28.3315 27.4165 28.1989 27.5625 28.0994 27.6828C27.8425 28.0091 27.7099 28.4729 27.7099 29.0655V30.0531H27.7182V30.0531ZM26.5497 35C26.1022 35 25.7127 34.8368 25.3812 34.5191C25.0497 34.2013 24.884 33.8148 24.884 33.3596C24.884 32.9045 25.0414 32.518 25.3646 32.1916C25.6878 31.8653 26.0773 31.7021 26.5249 31.7021C26.9724 31.7021 27.3619 31.8653 27.6934 32.183C28.0249 32.5008 28.1823 32.8873 28.1823 33.3425C28.1823 33.7976 28.0249 34.1841 27.7017 34.5105C27.3867 34.8368 26.9972 35 26.5497 35Z" fill="white"/>
</g>
<defs>
<clipPath id="clip0_196_86">
<rect width="54.0001" height="60" fill="white"/>
</clipPath>
</defs>
</svg>
