<svg width="505" height="505" viewBox="0 0 505 505" fill="none" xmlns="http://www.w3.org/2000/svg">
<path d="M252.062 504.124C391.272 504.124 504.124 391.272 504.124 252.062C504.124 112.852 391.272 0 252.062 0C112.852 0 0 112.852 0 252.062C0 391.272 112.852 504.124 252.062 504.124Z" fill="#BAEBBF"/>
<g clip-path="url(#clip0_309_12)">
<path d="M275.357 252.533L141.842 397.251L137.778 401.7C135.252 397.966 133.549 393.517 133.165 388.574C133.055 387.696 133 386.816 133 385.938V119.073C133 113.087 134.812 107.705 137.778 103.309L275.357 252.533Z" fill="#56AAD1"/>
<path d="M335.387 187.395L275.357 252.533L137.778 103.309C145.577 91.8863 161.504 86.9991 175.015 94.7977L335.387 187.395Z" fill="#A2CF7B"/>
<path d="M420.076 253.301C419.857 262.419 415.188 271.536 406.126 276.753L335.387 317.614L275.357 252.533L335.387 187.395L379.874 213.1L406.126 228.257C415.737 233.805 420.406 243.58 420.076 253.301Z" fill="#F8D07B"/>
<path d="M137.789 401.693C145.591 413.122 161.509 417.993 174.994 410.207L335.364 317.617L275.334 252.507L137.789 401.693Z" fill="#BE527E"/>
<path opacity="0.2" d="M419.452 246.473C417.905 239.207 413.47 232.496 406.126 228.257L379.874 213.1L335.387 187.395L175.015 94.7979C161.504 86.9992 145.577 91.8864 137.778 103.309C134.812 107.705 133 113.087 133 119.073V272.826C156.141 274.79 179.826 275.82 203.941 275.82C234.212 275.82 263.778 274.152 292.462 271.085L275.411 252.592L292.469 271.085C337.391 266.284 380.024 257.894 419.452 246.473Z" fill="white"/>
</g>
<defs>
<clipPath id="clip0_309_12">
<rect width="323" height="323" fill="white" transform="translate(144 91)"/>
</clipPath>
</defs>
</svg>
