<svg width="505" height="505" viewBox="0 0 505 505" fill="none" xmlns="http://www.w3.org/2000/svg">
<g clip-path="url(#clip0_208_2)">
<path d="M252.062 504.124C391.272 504.124 504.124 391.272 504.124 252.062C504.124 112.852 391.272 0 252.062 0C112.852 0 0 112.852 0 252.062C0 391.272 112.852 504.124 252.062 504.124Z" fill="#C5DDE7"/>
<path d="M393.847 94.5229H159.902V409.6H393.847V94.5229Z" fill="#324A5E"/>
<path d="M159.508 94.5229H110.277V409.6H159.508V94.5229Z" fill="#F7C600"/>
<path d="M167.385 131.545H152.025C148.48 131.545 145.723 128.788 145.723 125.243C145.723 121.698 148.48 118.941 152.025 118.941H167.385C170.93 118.941 173.687 121.698 173.687 125.243C173.686 128.394 170.929 131.545 167.385 131.545Z" fill="white"/>
<path d="M167.385 173.686H152.025C148.48 173.686 145.723 170.929 145.723 167.384C145.723 163.839 148.48 161.082 152.025 161.082H167.385C170.93 161.082 173.687 163.839 173.687 167.384C173.686 170.929 170.929 173.686 167.385 173.686Z" fill="white"/>
<path d="M167.385 216.222H152.025C148.48 216.222 145.723 213.465 145.723 209.92C145.723 206.375 148.48 203.618 152.025 203.618H167.385C170.93 203.618 173.687 206.375 173.687 209.92C173.686 213.071 170.929 216.222 167.385 216.222Z" fill="white"/>
<path d="M167.385 258.363H152.025C148.48 258.363 145.723 255.606 145.723 252.061C145.723 248.516 148.48 245.759 152.025 245.759H167.385C170.93 245.759 173.687 248.516 173.687 252.061C173.686 255.606 170.929 258.363 167.385 258.363Z" fill="white"/>
<path d="M167.385 300.898H152.025C148.48 300.898 145.723 298.141 145.723 294.596C145.723 291.051 148.48 288.294 152.025 288.294H167.385C170.93 288.294 173.687 291.051 173.687 294.596C173.686 297.748 170.929 300.898 167.385 300.898Z" fill="white"/>
<path d="M167.385 343.04H152.025C148.48 343.04 145.723 340.283 145.723 336.738C145.723 333.193 148.48 330.436 152.025 330.436H167.385C170.93 330.436 173.687 333.193 173.687 336.738C173.686 340.283 170.929 343.04 167.385 343.04Z" fill="white"/>
<path d="M167.385 385.575H152.025C148.48 385.575 145.723 382.818 145.723 379.273C145.723 375.728 148.48 372.971 152.025 372.971H167.385C170.93 372.971 173.687 375.728 173.687 379.273C173.686 382.425 170.929 385.575 167.385 385.575Z" fill="white"/>
<path d="M192.985 221.342V136.665C192.985 132.333 196.53 128.788 200.862 128.788H352.493C356.825 128.788 360.37 132.333 360.37 136.665V221.736C360.37 226.068 356.825 229.613 352.493 229.613H200.862C196.529 229.218 192.985 225.674 192.985 221.342Z" fill="white"/>
</g>
<defs>
<clipPath id="clip0_208_2">
<rect width="504.123" height="504.123" fill="white"/>
</clipPath>
</defs>
</svg>
