<svg width="48" height="48" viewBox="0 0 58 58" fill="none" xmlns="http://www.w3.org/2000/svg">
<g clip-path="url(#clip0_124_75)">
<path d="M46.7343 36.4699C45.0912 33.3646 39.0305 29.8127 39.0305 29.8127C37.6592 29.031 36.0049 28.9435 35.2223 30.3373C35.2223 30.3373 33.2537 32.6989 32.7525 33.0383C30.4645 34.5887 28.3453 34.529 26.2061 32.389L21.2345 27.4173L16.2628 22.4457C14.1228 20.3057 14.0631 18.1873 15.6135 15.8993C15.9529 15.3981 18.3145 13.4295 18.3145 13.4295C19.7074 12.6469 19.6208 10.9926 18.8391 9.6213C18.8391 9.6213 15.2872 3.56059 12.1819 1.91751C10.8609 1.21803 9.23859 1.46216 8.18158 2.51916L5.98359 4.71369C-0.980899 11.6782 2.44811 19.5421 9.41259 26.5066L15.778 32.872L22.1435 39.2375C29.1079 46.202 36.9719 49.6318 43.9364 42.6665L46.1326 40.4702C47.1888 39.4132 47.4329 37.7909 46.7343 36.4699Z" fill="#69BC45"/>
<path d="M47.4987 36.0647C45.7604 32.7785 39.724 29.2154 39.4591 29.0595C38.6834 28.618 37.874 28.3843 37.1165 28.3843C35.9902 28.3843 35.0683 28.9003 34.5099 29.8387C33.6269 30.8948 32.5309 32.1293 32.266 32.3206C30.2091 33.7161 28.5981 33.5577 26.8174 31.7761L16.8732 21.8327C15.1037 20.0624 14.9409 18.4323 16.326 16.3875C16.52 16.1192 17.7544 15.0241 18.8114 14.1393C19.485 13.7385 19.9472 13.1438 20.1489 12.4123C20.419 11.441 20.2199 10.2965 19.5845 9.1824C19.4347 8.92615 15.8707 2.88882 12.5854 1.15138C11.9725 0.826741 11.2817 0.655334 10.5891 0.655334C9.44812 0.655334 8.37467 1.1003 7.56871 1.90626L5.37158 4.10165C1.8967 7.57567 0.638847 11.5137 1.63093 15.8058C2.45853 19.3828 4.87035 23.1893 8.80059 27.1187L21.5306 39.8487C26.5048 44.8229 31.2471 47.3455 35.6258 47.3455C35.6258 47.3455 35.6258 47.3455 35.6266 47.3455C38.847 47.3455 41.8492 45.9769 44.5476 43.2785L46.7438 41.0823C48.0779 39.7491 48.3817 37.7329 47.4987 36.0647ZM45.5198 39.8582L43.3235 42.0544C40.961 44.4169 38.3717 45.6142 35.6266 45.6142C31.7232 45.6142 27.3922 43.2621 22.7547 38.6246L10.0247 25.8946C6.32731 22.1972 4.07045 18.6712 3.3173 15.4154C2.45593 11.6929 3.52853 8.39289 6.5948 5.32661L8.79106 3.13035C9.27066 2.65075 9.90867 2.38672 10.5874 2.38672C10.9994 2.38672 11.4089 2.48887 11.7742 2.68192C14.6258 4.19082 18.0557 10.0005 18.0851 10.0498C18.4738 10.7311 18.6219 11.4419 18.4807 11.9509C18.3942 12.2625 18.2011 12.4989 17.8895 12.6737L17.7588 12.7638C17.0203 13.3793 15.2638 14.87 14.8951 15.4136C14.3653 16.1962 14.0138 16.9658 13.8303 17.7216C13.2147 16.494 12.717 15.0717 12.5534 13.4961C12.504 13.0217 12.0807 12.6902 11.6028 12.7239C11.1276 12.7741 10.7813 13.1992 10.8306 13.6753C11.4557 19.6945 16.1365 23.6126 16.3356 23.7762C16.3572 23.7944 16.384 23.8013 16.4066 23.8169L25.5924 33.0019C25.6305 33.04 25.6703 33.0738 25.7084 33.111C25.7396 33.1569 25.7595 33.2071 25.8002 33.2469C25.9638 33.4088 29.8724 37.2005 35.8413 37.8203C35.8716 37.8229 35.9019 37.8247 35.9314 37.8247C36.3694 37.8247 36.7451 37.4931 36.7919 37.049C36.8412 36.5729 36.4958 36.1478 36.0197 36.0976C34.1913 35.908 32.5716 35.3722 31.2211 34.7506C31.8808 34.5506 32.5526 34.2191 33.2365 33.7559C33.7801 33.388 35.2708 31.6306 35.8863 30.8922L35.9764 30.7615C36.2196 30.3286 36.5927 30.1174 37.1165 30.1174C37.5667 30.1174 38.0939 30.2776 38.5925 30.5606C40.2191 31.5146 44.7147 34.5073 45.9691 36.8767C46.4937 37.8662 46.3127 39.0652 45.5198 39.8582Z" fill="#449E46"/>
<path d="M10.3882 28.4735C11.2271 26.5837 13.0797 24.8376 15.3088 24.8376C18.3102 24.8376 20.4718 27.2797 20.7436 30.1901C20.7436 30.1901 20.8908 30.913 20.5679 32.2132C20.1281 33.9845 19.0954 35.5583 17.7016 36.759L10.3882 43.0171L3.07575 36.759C1.68199 35.5583 0.649216 33.9845 0.209445 32.2132C-0.113458 30.913 0.0337091 30.1901 0.0337091 30.1901C0.305536 27.2797 2.46717 24.8376 5.46852 24.8376C7.69681 24.8376 9.54939 26.5837 10.3882 28.4735Z" fill="#ED7161"/>
</g>
<defs>
<clipPath id="clip0_124_75">
<rect width="48" height="48" fill="white"/>
</clipPath>
</defs>
</svg>
