<svg width="50" height="44" viewBox="0 0 58 58" fill="none" xmlns="http://www.w3.org/2000/svg">
<g clip-path="url(#clip0_128_162)">
<path d="M31.7028 36.9596H26.3005V42.8889H31.7028V36.9596Z" fill="#4D4C78"/>
<path d="M21.0034 5.53125H1.73532C1.3647 5.53125 1.00926 5.67898 0.747192 5.94193C0.485123 6.20489 0.337894 6.56154 0.337894 6.93342V41.4828C0.337462 41.6672 0.373289 41.8499 0.443322 42.0204C0.513356 42.1909 0.616221 42.3459 0.746028 42.4764C0.875834 42.607 1.03003 42.7105 1.19979 42.7812C1.36955 42.8519 1.55153 42.8883 1.73532 42.8883H26.3005V39.5396C26.3005 39.4833 26.2972 39.4271 26.2906 39.3713L22.391 6.76846C22.3507 6.42756 22.1872 6.11331 21.9315 5.88529C21.6758 5.65726 21.3455 5.53129 21.0034 5.53125Z" fill="#67BAEB"/>
<path d="M38.6636 6.64308L31.7323 39.3119C31.7115 39.4073 31.7005 39.5046 31.6995 39.6022V42.8883H56.2646C56.4484 42.8883 56.6304 42.8519 56.8002 42.7812C56.9699 42.7105 57.1241 42.607 57.2539 42.4764C57.3837 42.3458 57.4866 42.1909 57.5566 42.0204C57.6267 41.8499 57.6625 41.6672 57.662 41.4828V6.93341C57.662 6.56154 57.5148 6.20489 57.2528 5.94193C56.9907 5.67898 56.6352 5.53125 56.2646 5.53125H40.0314C39.7108 5.53047 39.3997 5.64063 39.1505 5.84315C38.9014 6.04568 38.7294 6.32819 38.6636 6.64308Z" fill="#67BAEB"/>
<path d="M38.8971 5.53125L31.6995 39.4538V36.9596H26.3005V39.4538L22.2431 5.53125H2.71851V41.9612L4.1258 41.3805C11.7515 38.2321 20.291 38.1423 27.9807 41.1298L29 41.5422L30.0193 41.1298C37.7091 38.1423 46.2486 38.2321 53.8743 41.3805L55.2816 41.9612V5.53125H38.8971Z" fill="#46A1F8"/>
<path d="M29 40.4336C20.908 37.0949 11.8298 37.0949 3.73779 40.4336V2.63454C11.8292 -0.707463 20.9086 -0.707463 29 2.63454V40.4336Z" fill="#C8C2E9"/>
<path d="M48.3799 45.8641L46.6603 44.4257L44.9439 45.8641C44.3619 46.3524 43.4741 45.9367 43.4741 45.1746V35.4056H49.8464V45.1746C49.8464 45.9367 48.9619 46.3524 48.3799 45.8641Z" fill="#F4C23F"/>
<path d="M43.4741 39.0051C45.6271 39.126 47.7622 39.4665 49.8464 40.0212V35.4056H43.4741V39.0051Z" fill="#F4A93F"/>
<path d="M29 40.4336C37.092 37.0949 46.1702 37.0949 54.2622 40.4336V2.63454C46.1708 -0.707463 37.0914 -0.707463 29 2.63454V40.4336Z" fill="#C8C2E9"/>
<path d="M5.84216 4.52499V1.84932C5.13522 2.08687 4.43158 2.3475 3.73779 2.63454V40.4336C11.8821 37.3718 20.8557 37.3718 29 40.4336V36.4317L28.7731 36.3558C15.0718 31.8656 5.84216 18.9854 5.84216 4.52499Z" fill="#B9B1E0"/>
<path d="M31.1044 4.52499V1.84932C30.3941 2.08687 29.6927 2.3486 29 2.63454V40.4336C37.1443 37.3718 46.1179 37.3718 54.2622 40.4336V36.4317L54.0354 36.3558C40.3307 31.8656 31.1044 18.9854 31.1044 4.52499Z" fill="#B9B1E0"/>
<path d="M49.705 10.3217C49.6277 10.3214 49.551 10.308 49.4781 10.2821C44.2864 8.35985 38.5814 8.35985 33.3896 10.2821C33.2257 10.3425 33.0445 10.335 32.8861 10.2614C32.7276 10.1878 32.6048 10.054 32.5446 9.88951C32.4844 9.72501 32.4918 9.54326 32.5652 9.38425C32.6386 9.22524 32.7719 9.10199 32.9359 9.04161C38.4209 7.01363 44.4468 7.01363 49.9319 9.04161C50.0775 9.09463 50.1997 9.1975 50.2771 9.3321C50.3545 9.46671 50.3821 9.6244 50.355 9.7774C50.3279 9.9304 50.2478 10.0689 50.1289 10.1685C50.01 10.268 49.8599 10.3223 49.705 10.3217Z" fill="#B9B1E0"/>
<path d="M49.705 17.316C49.6274 17.3162 49.5504 17.3017 49.4781 17.2732C44.2864 15.3509 38.5814 15.3509 33.3896 17.2732C33.3077 17.3077 33.2196 17.3253 33.1307 17.3247C33.0419 17.3242 32.954 17.3056 32.8725 17.2701C32.791 17.2345 32.7175 17.1828 32.6565 17.1179C32.5955 17.0531 32.5482 16.9765 32.5175 16.8928C32.4868 16.8091 32.4734 16.72 32.4779 16.631C32.4825 16.5419 32.505 16.4547 32.5441 16.3746C32.5832 16.2945 32.6381 16.2232 32.7054 16.165C32.7727 16.1068 32.8511 16.0629 32.9359 16.0359C38.4202 14.0036 44.4476 14.0036 49.9319 16.0359C50.0775 16.089 50.1997 16.1918 50.2771 16.3264C50.3545 16.461 50.3821 16.6187 50.355 16.7717C50.3279 16.9247 50.2478 17.0632 50.1289 17.1628C50.01 17.2624 49.8599 17.3166 49.705 17.316Z" fill="#B9B1E0"/>
<path d="M49.705 24.3071C49.6277 24.3068 49.551 24.2934 49.4781 24.2675C44.2864 22.3452 38.5814 22.3452 33.3896 24.2675C33.3077 24.3021 33.2196 24.3196 33.1307 24.3191C33.0419 24.3185 32.954 24.2999 32.8725 24.2644C32.791 24.2288 32.7175 24.1771 32.6565 24.1122C32.5955 24.0474 32.5482 23.9708 32.5175 23.8871C32.4868 23.8034 32.4734 23.7144 32.4779 23.6253C32.4825 23.5363 32.505 23.449 32.5441 23.369C32.5832 23.2889 32.6381 23.2176 32.7054 23.1594C32.7727 23.1012 32.8511 23.0572 32.9359 23.0303C38.4202 20.998 44.4476 20.998 49.9319 23.0303C50.0752 23.0848 50.1951 23.1879 50.2707 23.3217C50.3464 23.4555 50.3731 23.6116 50.3461 23.7631C50.3192 23.9145 50.2404 24.0518 50.1234 24.1511C50.0063 24.2504 49.8583 24.3056 49.705 24.3071Z" fill="#B9B1E0"/>
<path d="M49.705 31.3014C49.6277 31.3011 49.551 31.2877 49.4781 31.2618C44.2864 29.3396 38.5814 29.3396 33.3896 31.2618C33.2257 31.3222 33.0445 31.3148 32.8861 31.2411C32.7276 31.1675 32.6048 31.0337 32.5446 30.8692C32.4844 30.7047 32.4918 30.523 32.5652 30.364C32.6386 30.2049 32.7719 30.0817 32.9359 30.0213C38.4209 27.9933 44.4468 27.9933 49.9319 30.0213C50.0775 30.0743 50.1997 30.1772 50.2771 30.3118C50.3545 30.4464 50.3821 30.6041 50.355 30.7571C50.3279 30.9101 50.2478 31.0486 50.1289 31.1482C50.01 31.2477 49.8599 31.302 49.705 31.3014Z" fill="#B9B1E0"/>
<path d="M50.0667 9.76084C49.9894 9.76054 49.9127 9.74716 49.8398 9.72125C44.6481 7.79898 38.9431 7.79898 33.7513 9.72125C33.5874 9.78163 33.4062 9.77418 33.2478 9.70055C33.0893 9.62693 32.9665 9.49315 32.9063 9.32864C32.8461 9.16414 32.8535 8.9824 32.9269 8.82338C33.0003 8.66437 33.1336 8.54112 33.2976 8.48075C38.7826 6.45276 44.8085 6.45276 50.2936 8.48075C50.4392 8.53376 50.5614 8.63664 50.6388 8.77124C50.7162 8.90584 50.7438 9.06353 50.7167 9.21653C50.6896 9.36954 50.6095 9.50802 50.4906 9.6076C50.3717 9.70717 50.2216 9.76144 50.0667 9.76084Z" fill="#DFDAFD"/>
<path d="M50.0667 16.7552C49.9891 16.7554 49.9121 16.7408 49.8398 16.7123C44.6481 14.79 38.943 14.79 33.7513 16.7123C33.6694 16.7469 33.5813 16.7644 33.4924 16.7639C33.4036 16.7633 33.3157 16.7447 33.2342 16.7092C33.1527 16.6736 33.0792 16.6219 33.0182 16.557C32.9572 16.4922 32.9099 16.4156 32.8792 16.3319C32.8485 16.2482 32.835 16.1592 32.8396 16.0701C32.8442 15.9811 32.8667 15.8938 32.9058 15.8138C32.9449 15.7337 32.9998 15.6624 33.0671 15.6042C33.1344 15.546 33.2128 15.502 33.2975 15.4751C38.7819 13.4427 44.8093 13.4427 50.2936 15.4751C50.4392 15.5281 50.5614 15.631 50.6388 15.7656C50.7162 15.9002 50.7438 16.0579 50.7167 16.2109C50.6896 16.3639 50.6095 16.5024 50.4906 16.6019C50.3717 16.7015 50.2216 16.7558 50.0667 16.7552Z" fill="#DFDAFD"/>
<path d="M50.0667 23.7462C49.9894 23.7459 49.9127 23.7325 49.8398 23.7066C44.6481 21.7844 38.943 21.7844 33.7513 23.7066C33.6694 23.7412 33.5813 23.7587 33.4924 23.7582C33.4036 23.7577 33.3157 23.7391 33.2342 23.7035C33.1527 23.668 33.0792 23.6162 33.0182 23.5514C32.9572 23.4865 32.9099 23.41 32.8792 23.3263C32.8485 23.2426 32.835 23.1535 32.8396 23.0644C32.8442 22.9754 32.8667 22.8882 32.9058 22.8081C32.9449 22.728 32.9998 22.6567 33.0671 22.5985C33.1344 22.5403 33.2128 22.4964 33.2975 22.4694C38.7819 20.4371 44.8093 20.4371 50.2936 22.4694C50.4369 22.524 50.5568 22.627 50.6324 22.7608C50.7081 22.8947 50.7347 23.0508 50.7078 23.2022C50.6809 23.3537 50.6021 23.4909 50.4851 23.5902C50.368 23.6896 50.22 23.7447 50.0667 23.7462Z" fill="#DFDAFD"/>
<path d="M50.0667 30.7405C49.9894 30.7403 49.9127 30.7269 49.8398 30.701C44.6481 28.7787 38.9431 28.7787 33.7513 30.701C33.6701 30.7309 33.5839 30.7444 33.4975 30.7409C33.4111 30.7373 33.3262 30.7167 33.2478 30.6803C33.1693 30.6438 33.0988 30.5922 33.0402 30.5284C32.9816 30.4646 32.9361 30.3898 32.9063 30.3083C32.8765 30.2269 32.863 30.1404 32.8665 30.0537C32.8701 29.967 32.8906 29.8818 32.9269 29.8031C32.9632 29.7244 33.0147 29.6536 33.0783 29.5948C33.1419 29.536 33.2164 29.4903 33.2976 29.4605C38.7826 27.4325 44.8085 27.4325 50.2936 29.4605C50.4392 29.5135 50.5614 29.6163 50.6388 29.7509C50.7162 29.8855 50.7438 30.0432 50.7167 30.1962C50.6896 30.3492 50.6095 30.4877 50.4906 30.5873C50.3717 30.6869 50.2216 30.7411 50.0667 30.7405Z" fill="#DFDAFD"/>
<path d="M49.9023 9.99179C49.825 9.99149 49.7483 9.9781 49.6754 9.9522C44.4837 8.02993 38.7786 8.02993 33.5869 9.9522C33.5057 9.98209 33.4195 9.99565 33.3331 9.9921C33.2467 9.98855 33.1618 9.96795 33.0833 9.9315C33.0049 9.89504 32.9343 9.84343 32.8757 9.77962C32.8171 9.71581 32.7717 9.64104 32.7419 9.55959C32.7121 9.47814 32.6986 9.39159 32.7021 9.3049C32.7056 9.21821 32.7262 9.13306 32.7625 9.05433C32.7988 8.97559 32.8503 8.90481 32.9138 8.84602C32.9774 8.78723 33.052 8.74158 33.1331 8.71169C38.6182 6.68371 44.6441 6.68371 50.1292 8.71169C50.2747 8.76471 50.397 8.86758 50.4744 9.00218C50.5518 9.13678 50.5794 9.29448 50.5523 9.44748C50.5252 9.60048 50.4451 9.73897 50.3262 9.83854C50.2073 9.93812 50.0572 9.99238 49.9023 9.99179Z" fill="#4D4C78"/>
<path d="M49.9023 16.9861C49.8246 16.9863 49.7476 16.9718 49.6754 16.9432C44.4836 15.021 38.7786 15.021 33.5869 16.9432C33.5049 16.9778 33.4169 16.9954 33.328 16.9948C33.2391 16.9943 33.1513 16.9757 33.0698 16.9401C32.9883 16.9046 32.9148 16.8528 32.8538 16.788C32.7928 16.7231 32.7455 16.6466 32.7148 16.5629C32.6841 16.4792 32.6706 16.3901 32.6752 16.3011C32.6798 16.212 32.7023 16.1248 32.7414 16.0447C32.7805 15.9646 32.8353 15.8933 32.9027 15.8351C32.97 15.7769 33.0484 15.733 33.1331 15.706C38.6174 13.6737 44.6448 13.6737 50.1291 15.706C50.2747 15.759 50.397 15.8619 50.4744 15.9965C50.5518 16.1311 50.5794 16.2888 50.5523 16.4418C50.5251 16.5948 50.4451 16.7333 50.3262 16.8329C50.2073 16.9325 50.0571 16.9867 49.9023 16.9861Z" fill="#4D4C78"/>
<path d="M49.9023 23.9772C49.825 23.9769 49.7483 23.9635 49.6754 23.9376C44.4836 22.0153 38.7786 22.0153 33.5869 23.9376C33.5049 23.9721 33.4169 23.9897 33.328 23.9892C33.2391 23.9886 33.1513 23.97 33.0698 23.9345C32.9883 23.8989 32.9148 23.8472 32.8538 23.7823C32.7928 23.7175 32.7455 23.6409 32.7148 23.5572C32.6841 23.4735 32.6706 23.3845 32.6752 23.2954C32.6798 23.2063 32.7023 23.1191 32.7414 23.039C32.7805 22.959 32.8353 22.8877 32.9027 22.8294C32.97 22.7712 33.0484 22.7273 33.1331 22.7004C38.6174 20.668 44.6448 20.668 50.1291 22.7004C50.2725 22.7549 50.3924 22.858 50.468 22.9918C50.5436 23.1256 50.5703 23.2817 50.5434 23.4332C50.5165 23.5846 50.4377 23.7219 50.3206 23.8212C50.2036 23.9205 50.0556 23.9757 49.9023 23.9772Z" fill="#4D4C78"/>
<path d="M49.9023 30.9715C49.825 30.9712 49.7483 30.9578 49.6754 30.9319C44.4837 29.0096 38.7786 29.0096 33.5869 30.9319C33.5057 30.9618 33.4195 30.9754 33.3331 30.9718C33.2467 30.9682 33.1618 30.9477 33.0833 30.9112C33.0049 30.8747 32.9343 30.8231 32.8757 30.7593C32.8171 30.6955 32.7717 30.6207 32.7419 30.5393C32.7121 30.4578 32.6986 30.3713 32.7021 30.2846C32.7056 30.1979 32.7262 30.1128 32.7625 30.034C32.7988 29.9553 32.8503 29.8845 32.9138 29.8257C32.9774 29.7669 33.052 29.7213 33.1331 29.6914C38.6182 27.6634 44.6441 27.6634 50.1292 29.6914C50.2747 29.7444 50.397 29.8473 50.4744 29.9819C50.5518 30.1165 50.5794 30.2742 50.5523 30.4272C50.5252 30.5802 50.4451 30.7187 50.3262 30.8182C50.2073 30.9178 50.0572 30.9721 49.9023 30.9715Z" fill="#4D4C78"/>
<path d="M54.259 5.94035C54.259 5.19693 53.6584 4.59427 52.9175 4.59427C52.1766 4.59427 51.5759 5.19693 51.5759 5.94035V21.2325C51.5759 21.976 52.1766 22.5786 52.9175 22.5786C53.6584 22.5786 54.259 21.976 54.259 21.2325V5.94035Z" fill="#DFDAFD"/>
<path d="M29 7.4316C29 6.90318 28.5731 6.47482 28.0464 6.47482C27.5198 6.47482 27.0929 6.90318 27.0929 7.4316V17.1554C27.0929 17.6838 27.5198 18.1121 28.0464 18.1121C28.5731 18.1121 29 17.6838 29 17.1554V7.4316Z" fill="#DFDAFD"/>
<path d="M49.8464 42.3505C49.8464 41.9897 49.5557 41.6972 49.197 41.6972C48.8384 41.6972 48.5476 41.9897 48.5476 42.3505V44.5207C48.5476 44.8815 48.8384 45.174 49.197 45.174C49.5557 45.174 49.8464 44.8815 49.8464 44.5207V42.3505Z" fill="#FAD564"/>
<path d="M57.662 10.391C57.662 10.043 57.3809 9.76084 57.034 9.76084C56.6872 9.76084 56.406 10.043 56.406 10.391V23.9692C56.406 24.3173 56.6872 24.5994 57.034 24.5994C57.3809 24.5994 57.662 24.3173 57.662 23.9692V10.391Z" fill="#83D0FB"/>
<path d="M17.2435 26.2108C17.2435 28.9643 20.3965 30.2317 20.7282 27.8209C20.8756 26.7506 21.8558 27.2863 22.335 26.287C22.5946 25.7454 22.4566 25.3066 22.9793 25.0377C23.9432 24.5412 24.6286 23.1283 24.5614 22.015C24.5251 21.4115 25.5343 20.4209 25.8573 19.9171C26.4525 18.9877 26.4525 17.6996 25.8573 16.7703C25.5346 16.2664 25.3796 15.2759 25.4161 14.6724C25.4834 13.5591 24.9001 12.3717 23.9362 11.8752C23.4135 11.6059 22.9901 11.7175 22.7305 11.1759C22.2514 10.1769 21.8029 10.0573 20.7286 10.1269C20.1463 10.1647 19.8863 9.08602 18.9862 9.08602C18.9813 9.08602 18.9792 9.07798 18.9744 9.07798C18.0422 9.07798 17.2439 9.58322 17.2439 10.1269V26.2108H17.2435Z" fill="#EFC9B3"/>
<path d="M19.5085 29.4464C19.4702 29.4464 19.4322 29.445 19.3942 29.4426C18.1871 29.3594 16.8947 28.0405 16.8947 26.2104V10.1266C16.8947 9.36854 17.8467 8.72798 18.9736 8.72798L19.1496 8.74546C19.6963 8.80875 20.0417 9.17868 20.2999 9.45595C20.4501 9.61679 20.5957 9.79826 20.7051 9.77763C21.8725 9.70175 22.4876 9.86399 23.0437 11.0238C23.1493 11.2437 23.2646 11.2773 23.5438 11.358C23.7058 11.4049 23.8898 11.458 24.0947 11.5636C25.1554 12.1101 25.8416 13.3968 25.7635 14.693C25.7301 15.2482 25.8806 16.1598 26.1503 16.5804C26.8148 17.6182 26.8148 19.0678 26.1503 20.1056C26.0475 20.2657 25.897 20.4521 25.7227 20.6681C25.4119 21.0535 24.8913 21.6979 24.9091 21.993C24.9882 23.2992 24.1937 24.8045 23.1381 25.3482C22.9482 25.4461 22.9162 25.545 22.8444 25.8447C22.8047 26.0104 22.7552 26.2164 22.6489 26.438C22.3621 27.0363 21.9122 27.2076 21.5836 27.3335C21.2575 27.4576 21.1226 27.5094 21.0731 27.8681C20.9125 29.0363 20.18 29.4464 19.5085 29.4464ZM18.8224 9.43252C18.1 9.48042 17.5919 9.86294 17.5919 10.1266V26.2104C17.5919 27.7604 18.6861 28.6929 19.4423 28.745C19.9532 28.7706 20.2919 28.4352 20.3828 27.773C20.4887 27.0038 20.9783 26.8167 21.3359 26.6804C21.6255 26.5699 21.8544 26.4825 22.0206 26.1353C22.0945 25.9811 22.1311 25.8283 22.1666 25.6807C22.2461 25.3503 22.3363 24.9751 22.8196 24.7265C23.6236 24.3125 24.2745 23.0552 24.2132 22.036C24.179 21.4695 24.7111 20.8101 25.1809 20.2283C25.3356 20.0367 25.4816 19.8559 25.5635 19.7276C26.0858 18.9126 26.0858 17.7741 25.5635 16.9591C25.2 16.3919 25.0258 15.3402 25.0676 14.6507C25.1286 13.6391 24.5857 12.6028 23.7762 12.1857C23.6316 12.1112 23.4884 12.0699 23.3504 12.0297C23.0249 11.9353 22.6562 11.8287 22.4158 11.3269C22.0133 10.4881 21.7227 10.4136 20.7501 10.4752C20.3257 10.4955 20.0396 10.2 19.7908 9.93322C19.5019 9.62308 19.3036 9.43497 18.9855 9.43497L18.8224 9.43252Z" fill="#CF8C6D"/>
<path d="M17.2435 26.2108C17.2435 28.9643 14.0906 30.2317 13.7588 27.8209C13.6114 26.7506 12.6312 27.2863 12.152 26.287C11.8924 25.7454 12.0304 25.3066 11.5077 25.0377C10.5439 24.5412 9.85843 23.1283 9.92569 22.015C9.96193 21.4115 8.95277 20.4209 8.62974 19.9171C8.03455 18.9877 8.03455 17.6996 8.62974 16.7703C8.95242 16.2664 9.10749 15.2759 9.0709 14.6724C9.00364 13.5591 9.58698 12.3717 10.5508 11.8752C11.0735 11.6059 11.4969 11.7175 11.7565 11.1759C12.2357 10.1769 12.6842 10.0573 13.7585 10.1269C14.3408 10.1647 14.6007 9.22378 15.5008 9.08602C15.5054 9.08532 15.5085 9.08078 15.5127 9.07798C16.0176 8.73462 17.2432 9.58322 17.2432 10.1269V26.2108H17.2435Z" fill="#EFC9B3"/>
<path d="M14.9781 29.4464C14.3066 29.4464 13.5741 29.0363 13.4135 27.8685C13.364 27.5097 13.2291 27.458 12.903 27.3339C12.5747 27.2087 12.1248 27.0366 11.838 26.4384C11.7318 26.2167 11.6823 26.0104 11.6422 25.845C11.5701 25.5457 11.5384 25.4464 11.3484 25.3485C10.2933 24.8048 9.49877 23.3 9.57753 21.9933C9.5953 21.6982 9.07469 21.0535 8.76386 20.6685C8.58962 20.4524 8.43908 20.266 8.33629 20.1059C7.67176 19.0681 7.67176 17.6185 8.33629 16.5807C8.606 16.1601 8.75654 15.2482 8.72309 14.6933C8.64468 13.3972 9.33116 12.1101 10.3919 11.564C10.5964 11.4584 10.7804 11.4052 10.9428 11.3584C11.2219 11.2776 11.3373 11.2441 11.4425 11.0241C11.999 9.86504 12.6134 9.7028 13.7811 9.77798C13.8971 9.79196 14.0243 9.66364 14.2275 9.46189C14.4847 9.20665 14.8324 8.86085 15.3753 8.7535C15.6844 8.58357 16.1158 8.62588 16.5765 8.87099C17.0821 9.14022 17.5923 9.63287 17.5923 10.1273V26.2111C17.5923 28.0412 16.2998 29.3601 15.0927 29.4433C15.0544 29.445 15.0164 29.4464 14.9781 29.4464ZM13.3065 10.4587C12.6646 10.4587 12.4064 10.6269 12.0705 11.3273C11.8304 11.829 11.4613 11.9357 11.1359 12.0301C10.9979 12.0703 10.8547 12.1115 10.71 12.186C9.90091 12.6028 9.35765 13.6395 9.41863 14.651C9.46044 15.3405 9.28621 16.3919 8.92276 16.9594C8.4004 17.7744 8.4004 18.9129 8.92276 19.7279C9.00465 19.8559 9.15066 20.037 9.30538 20.2286C9.77511 20.8104 10.3072 21.4699 10.2731 22.0363C10.2117 23.0555 10.8627 24.3132 11.6666 24.7269C12.1499 24.9758 12.2402 25.3506 12.3196 25.6811C12.3552 25.8286 12.3918 25.9811 12.466 26.1356C12.6322 26.4825 12.8611 26.5699 13.1507 26.6807C13.5082 26.8171 13.9982 27.0041 14.1038 27.7734C14.1947 28.4359 14.5296 28.772 15.0443 28.7454C15.8005 28.6933 16.8947 27.7608 16.8947 26.2108V10.1269C16.8947 10.0227 16.6497 9.7014 16.2493 9.48847C15.975 9.34266 15.7876 9.33182 15.7207 9.36084L15.6663 9.41119L15.5517 9.43252C15.192 9.48742 14.9614 9.71679 14.7171 9.95909C14.4599 10.2147 14.1686 10.5035 13.7354 10.4762C13.5755 10.465 13.4333 10.4587 13.3065 10.4587Z" fill="#CF8C6D"/>
<path d="M22.4704 25.8611C22.278 25.8611 22.1219 25.7048 22.1219 25.5115C22.1219 24.5475 21.3403 23.7632 20.3796 23.7632C20.1872 23.7632 20.0311 23.6069 20.0311 23.4136C20.0311 23.2202 20.1872 23.0639 20.3796 23.0639C21.7247 23.0639 22.8189 24.1622 22.8189 25.5115C22.8189 25.7045 22.6628 25.8611 22.4704 25.8611Z" fill="#CF8C6D"/>
<path d="M12.0164 25.8611C11.8241 25.8611 11.668 25.7048 11.668 25.5115C11.668 24.1622 12.7622 23.0639 14.1072 23.0639C14.2996 23.0639 14.4557 23.2202 14.4557 23.4136C14.4557 23.6069 14.2996 23.7632 14.1072 23.7632C13.1465 23.7632 12.3649 24.5475 12.3649 25.5115C12.3649 25.7045 12.2088 25.8611 12.0164 25.8611Z" fill="#CF8C6D"/>
<path d="M21.4251 13.2738C21.2328 13.2738 21.0767 13.1175 21.0767 12.9241C21.0767 11.9601 21.8583 11.1759 22.819 11.1759C23.0114 11.1759 23.1675 11.3322 23.1675 11.5255C23.1675 11.7189 23.0114 11.8752 22.819 11.8752C22.2426 11.8752 21.7736 12.3458 21.7736 12.9241C21.7736 13.1171 21.6175 13.2738 21.4251 13.2738Z" fill="#CF8C6D"/>
<path d="M13.4103 13.6234C13.2179 13.6234 13.0618 13.4671 13.0618 13.2738C13.0618 12.5024 12.4366 11.8752 11.6679 11.8752C11.4756 11.8752 11.3195 11.7189 11.3195 11.5255C11.3195 11.3322 11.4756 11.1759 11.6679 11.1759C12.821 11.1759 13.7587 12.1168 13.7587 13.2738C13.7587 13.4668 13.6026 13.6234 13.4103 13.6234Z" fill="#CF8C6D"/>
<path d="M24.5612 22.015C24.3689 22.015 24.2128 21.8587 24.2128 21.6653C24.2128 20.5084 23.275 19.5674 22.122 19.5674C20.5849 19.5674 19.3342 18.3126 19.3342 16.7703C19.3342 16.5769 19.4903 16.4206 19.6827 16.4206C19.8751 16.4206 20.0312 16.5769 20.0312 16.7703C20.0312 17.9272 20.9689 18.8681 22.122 18.8681C23.6591 18.8681 24.9097 20.123 24.9097 21.6653C24.9097 21.8583 24.7536 22.015 24.5612 22.015Z" fill="#CF8C6D"/>
<path d="M17.2435 12.9241C15.7064 12.9241 14.4558 14.179 14.4558 15.7213C14.4558 16.8783 13.518 17.8192 12.3649 17.8192C12.1726 17.8192 12.0165 17.9755 12.0165 18.1689C12.0165 18.3622 12.1726 18.5185 12.3649 18.5185C13.902 18.5185 15.1527 17.2636 15.1527 15.7213C15.1527 14.5643 16.0904 13.6234 17.2435 13.6234C17.4358 13.6234 17.592 13.4671 17.592 13.2738C17.592 13.0804 17.4358 12.9241 17.2435 12.9241Z" fill="#F7E1D5"/>
<path d="M16.0367 18.3912C15.9005 18.2545 15.6802 18.2545 15.544 18.3912C15.0669 18.8695 14.8042 19.5059 14.8042 20.1818C14.8042 20.7479 14.9906 21.2842 15.3304 21.7251C14.9906 22.166 14.8042 22.7027 14.8042 23.2685C14.8042 23.9447 15.0669 24.5807 15.544 25.059C15.6119 25.1272 15.7012 25.1615 15.7904 25.1615C15.8796 25.1615 15.9688 25.1272 16.0367 25.059C16.173 24.9223 16.173 24.7013 16.0367 24.5646C15.6914 24.2181 15.5011 23.7576 15.5011 23.2685C15.5011 22.7793 15.6914 22.3188 16.0367 21.9723C16.173 21.8356 16.173 21.6146 16.0367 21.4779C15.6914 21.1314 15.5011 20.6709 15.5011 20.1818C15.5011 19.6926 15.6914 19.2321 16.0367 18.8856C16.1726 18.7493 16.1726 18.5279 16.0367 18.3912Z" fill="#F7E1D5"/>
<path d="M19.4126 19.5601C19.2764 19.4234 19.0561 19.4234 18.9199 19.5601C18.7836 19.6968 18.7836 19.9178 18.9199 20.0545C19.5673 20.7045 19.5673 21.7622 18.9199 22.4122C18.4742 22.8594 18.2285 23.4538 18.2285 24.0853C18.2285 24.7167 18.4742 25.3111 18.9199 25.7583C18.9878 25.8265 19.077 25.8608 19.1662 25.8608C19.2554 25.8608 19.3447 25.8265 19.4126 25.7583C19.5489 25.6216 19.5489 25.4006 19.4126 25.2639C19.0986 24.9489 18.9255 24.53 18.9255 24.0853C18.9255 23.6405 19.0986 23.2216 19.4126 22.9066C20.3319 21.9842 20.3319 20.4828 19.4126 19.5601Z" fill="#F7E1D5"/>
<path d="M23.4513 16.2349C22.5512 16.3933 21.686 15.7867 21.5274 14.8815C21.4184 14.2587 21.0744 13.7157 20.5591 13.3531C20.0437 12.9905 19.4175 12.851 18.7969 12.9601C18.6073 12.9937 18.4804 13.1748 18.5139 13.365C18.5474 13.5552 18.7275 13.6804 18.9174 13.6493C19.3558 13.5703 19.7959 13.6706 20.159 13.9255C20.5221 14.1811 20.7643 14.5636 20.8413 15.0024C21.0424 16.1496 22.04 16.9601 23.1635 16.9601C23.2984 16.9601 23.435 16.9482 23.5723 16.9241C23.7618 16.8905 23.8887 16.7094 23.8552 16.5192C23.8218 16.329 23.6423 16.2021 23.4513 16.2349Z" fill="#F7E1D5"/>
<path d="M11.6227 16.621C12.1959 16.621 12.7361 16.2671 12.9458 15.6968C13.0124 15.5154 12.9204 15.3143 12.7399 15.2475C12.5597 15.1811 12.3587 15.2734 12.2921 15.4545C12.1559 15.8245 11.7454 16.014 11.3777 15.8773C10.6494 15.6087 9.8375 15.9832 9.56848 16.714C9.50193 16.8954 9.59427 17.0965 9.77478 17.1633C9.8145 17.1779 9.85527 17.1849 9.89535 17.1849C10.0372 17.1849 10.1703 17.0975 10.2222 16.9566C10.3581 16.587 10.7672 16.3965 11.1366 16.5339C11.2969 16.5926 11.461 16.621 11.6227 16.621Z" fill="#F7E1D5"/>
<path d="M12.7325 21.972C12.3645 21.836 12.1753 21.4244 12.3109 21.0552V21.0549C12.5799 20.3237 12.2056 19.5094 11.477 19.2391C11.2972 19.173 11.0958 19.265 11.0292 19.4461C10.9627 19.6276 11.0547 19.8286 11.2352 19.8954C11.6035 20.0318 11.7927 20.4433 11.6568 20.8125C11.6568 20.8129 11.6568 20.8132 11.6568 20.8132C11.3885 21.5437 11.7624 22.358 12.4907 22.6283C12.5304 22.643 12.5712 22.65 12.6116 22.65C12.7534 22.65 12.8866 22.5625 12.9385 22.4216C13.0054 22.2402 12.913 22.0395 12.7325 21.972Z" fill="#F7E1D5"/>
</g>
<defs>
<clipPath id="clip0_128_162">
<rect width="58" height="46.4" fill="white"/>
</clipPath>
</defs>
</svg>
