<?xml version="1.0" encoding="iso-8859-1"?>
<!-- Uploaded to: SVG Repo, www.svgrepo.com, Generator: SVG Repo Mixer Tools -->
<svg version="1.1" id="Layer_1" xmlns="http://www.w3.org/2000/svg" xmlns:xlink="http://www.w3.org/1999/xlink" 
	 viewBox="0 0 512 512" xml:space="preserve">
<path style="fill:#F2F2F2;" d="M35.445,476.555L35.445,476.555c-33.721-33.72-33.721-88.392,0-122.111l80.337-80.337
	l122.111,122.112l-80.337,80.337C123.836,510.274,69.165,510.274,35.445,476.555z"/>
<rect x="277.364" y="40.351" transform="matrix(-0.7071 -0.7071 0.7071 -0.7071 359.7 575.0774)" style="fill:#FFAD61;" width="43.177" height="345.382"/>
<g>
	<path style="fill:#534741;" d="M110.043,387.99l-5.118,5.118c-3.983,3.983-3.983,10.442,0,14.426
		c1.992,1.991,4.602,2.988,7.212,2.988c2.61,0,5.221-0.997,7.212-2.988l5.118-5.118c3.983-3.983,3.983-10.442,0-14.426
		C120.486,384.007,114.027,384.007,110.043,387.99z"/>
	<path style="fill:#534741;" d="M509.013,100.997L411.002,2.987c-3.984-3.982-10.441-3.982-14.426,0
		c-19.709,19.71-21.314,50.755-4.846,72.329L161.574,305.474l-38.58-38.58c-3.982-3.982-10.442-3.982-14.425,0l-80.337,80.337
		c-37.642,37.643-37.642,98.893,0,136.536l0,0C47.053,502.588,71.777,512,96.5,512s49.447-9.412,68.268-28.233l80.337-80.337
		c1.913-1.914,2.988-4.507,2.988-7.213c0-2.705-1.075-5.299-2.988-7.212l-38.579-38.579l230.151-230.151
		c9.548,7.31,21.161,11.28,33.389,11.28c14.712,0,28.543-5.728,38.946-16.131C512.996,111.44,512.996,104.981,509.013,100.997z
		 M150.344,469.341c-29.688,29.689-77.997,29.689-107.687,0l0,0c-29.689-29.688-29.689-77.997,0-107.686l73.123-73.123l46.631,46.63
		l-32.152,32.152c-3.983,3.983-3.983,10.442,0,14.426c1.992,1.991,4.602,2.988,7.212,2.988s5.221-0.997,7.212-2.988l32.152-32.152
		l46.631,46.631L150.344,469.341z M192.102,336.001l-16.103-16.103L405.797,90.101l16.102,16.102L192.102,336.001z M470.066,111.155
		c-9.263,0-17.971-3.607-24.52-10.157l-34.545-34.545c-11.012-11.012-13.056-27.646-6.131-40.745l81.431,81.431
		C481.36,109.763,475.821,111.155,470.066,111.155z"/>
</g>
</svg>