<svg width="20" height="20" viewBox="0 0 20 20" fill="none" xmlns="http://www.w3.org/2000/svg">
<g clip-path="url(#clip0_158_393)">
<path d="M19.4576 15.3406C18.7539 14.0107 16.1582 12.4895 16.1582 12.4895C15.5709 12.1547 14.8624 12.1172 14.5272 12.7142C14.5272 12.7142 13.6841 13.7256 13.4694 13.8709C12.4895 14.535 11.5819 14.5094 10.6657 13.5929L8.53644 11.4636L6.40715 9.3343C5.49063 8.41778 5.46505 7.51052 6.12908 6.5306C6.27442 6.31593 7.28586 5.47282 7.28586 5.47282C7.88241 5.13765 7.84534 4.42912 7.51054 3.84184C7.51054 3.84184 5.9893 1.24613 4.65938 0.542429C4.0936 0.242853 3.39879 0.347408 2.94609 0.800108L2.0051 1.73999C-0.977681 4.72277 0.490907 8.09077 3.47369 11.0735L6.1999 13.7998L8.92611 16.526C11.9089 19.5087 15.2769 20.9777 18.2597 17.9946L19.2003 17.0539C19.6526 16.6012 19.7572 15.9061 19.4576 15.3406Z" fill="#52C306"/>
<path d="M19.7853 15.1674C19.0408 13.76 16.4555 12.2339 16.342 12.1672C16.0098 11.9781 15.6632 11.878 15.3387 11.878C14.8564 11.878 14.4615 12.099 14.2224 12.5009C13.8442 12.9532 13.3748 13.4819 13.2614 13.5638C12.3804 14.1615 11.6905 14.0937 10.9278 13.3306L6.66885 9.0717C5.91102 8.31349 5.84131 7.61535 6.43453 6.73961C6.51758 6.62467 7.04629 6.15566 7.49899 5.77674C7.78744 5.60508 7.98543 5.35036 8.07182 5.03707C8.1875 4.62108 8.10222 4.13093 7.83008 3.65376C7.76594 3.54401 6.23951 0.95832 4.83247 0.214201C4.56997 0.0751656 4.2741 0.00175476 3.9775 0.00175476C3.48883 0.00175476 3.02909 0.192326 2.68391 0.537505L1.74254 1.47813C0.254306 2.96599 -0.284411 4.65259 0.140482 6.49083C0.49493 8.02281 1.52787 9.65305 3.21113 11.3359L8.66318 16.788C10.7936 18.9184 12.8246 19.9988 14.6999 19.9988C16.0795 19.9988 17.365 19.4126 18.521 18.257L19.4616 17.3163C20.0333 16.7454 20.1631 15.8819 19.7853 15.1674ZM18.9377 16.7921L17.9971 17.7327C16.9853 18.7445 15.8764 19.2573 14.7007 19.2573C14.7007 19.2573 14.7007 19.2573 14.7003 19.2573C13.0285 19.2573 11.174 18.2499 9.18781 16.2637L3.73576 10.8117C2.15224 9.22816 1.18566 7.71805 0.863097 6.32361C0.49456 4.72897 0.953563 3.31562 2.2668 2.00238L3.20742 1.06176C3.41283 0.85636 3.68608 0.743278 3.97675 0.743278C4.15324 0.743278 4.32861 0.787028 4.48507 0.869708C5.70636 1.51595 7.17532 4.00413 7.18792 4.02526C7.35439 4.31705 7.41779 4.62145 7.35736 4.83945C7.32028 4.97293 7.2376 5.07415 7.10413 5.14904L7.04814 5.1876C6.73188 5.45121 5.97961 6.08966 5.82166 6.3225C5.59476 6.65767 5.44423 6.98728 5.36563 7.31095C5.10202 6.78521 4.88883 6.17605 4.81875 5.50126C4.79762 5.29809 4.61632 5.15608 4.41166 5.17054C4.20811 5.19205 4.0598 5.37409 4.08094 5.57801C4.34863 8.15592 6.35334 9.83399 6.43861 9.90406C6.44788 9.91185 6.45937 9.91481 6.46901 9.92148L10.4032 13.8553C10.4195 13.8716 10.4365 13.886 10.4528 13.902C10.4662 13.9216 10.4747 13.9431 10.4922 13.9602C10.5622 14.0295 12.2362 15.6535 14.7926 15.9189C14.8056 15.92 14.8186 15.9208 14.8312 15.9208C15.0188 15.9208 15.1797 15.7788 15.1997 15.5886C15.2208 15.3847 15.0729 15.2026 14.869 15.1811C14.0859 15.0999 13.3922 14.8704 12.8139 14.6042C13.0964 14.5186 13.3841 14.3766 13.677 14.1782C13.9098 14.0206 14.5483 13.268 14.8119 12.9517L14.8505 12.8957C14.9546 12.7104 15.1144 12.6199 15.3387 12.6199C15.5315 12.6199 15.7573 12.6885 15.9709 12.8097C16.6676 13.2183 18.5929 14.5 19.1302 15.5148C19.3545 15.9389 19.2773 16.4525 18.9377 16.7921Z" fill="#388F04"/>
</g>
<defs>
<clipPath id="clip0_158_393">
<rect width="20" height="20" fill="white"/>
</clipPath>
</defs>
</svg>
