<svg width="512" height="512" viewBox="0 0 512 512" fill="none" xmlns="http://www.w3.org/2000/svg">
<path d="M377.51 194.142C376.679 186.438 374.59 179.11 371.466 172.35L451 136L438.175 112L351.167 146.604C339.182 137.117 324.055 131.431 307.617 131.431H267.5C231.298 131.431 205.302 158.934 201.5 194.142L73 194.143L38.5 241.269H509.5L434.379 194.143H377.51V194.142Z" fill="#F2F2F2"/>
<path d="M511.999 256.821H34.586L0 301.342L45.548 359.972C48.484 401.793 83.422 434.928 125.975 434.928C152.545 434.928 176.147 422.008 190.849 402.127C205.552 422.007 229.154 434.928 255.722 434.928C282.292 434.928 305.894 422.008 320.596 402.127C335.299 422.007 358.901 434.928 385.469 434.928C429.94 434.928 466.12 398.749 466.12 354.277C466.12 343.444 463.959 333.111 460.07 323.665L511.999 256.821ZM125.976 383.525C109.848 383.525 96.727 370.404 96.727 354.276C96.727 338.148 109.848 325.028 125.976 325.028C142.104 325.028 155.225 338.148 155.225 354.276C155.225 370.404 142.103 383.525 125.976 383.525ZM255.724 383.525C239.596 383.525 226.476 370.404 226.476 354.276C226.476 338.148 239.596 325.028 255.724 325.028C271.852 325.028 284.972 338.148 284.972 354.276C284.972 370.404 271.851 383.525 255.724 383.525ZM385.472 383.525C369.344 383.525 356.223 370.404 356.223 354.276C356.223 338.148 369.344 325.028 385.472 325.028C401.6 325.028 414.721 338.148 414.721 354.276C414.721 370.404 401.599 383.525 385.472 383.525Z" fill="#F2F2F2"/>
<path d="M246.113 292V277.569L304.048 197.046H246V177H334.887V191.431L276.895 271.954H335V292H246.113Z" fill="#1C1C1C"/>
<rect x="53" y="152" width="510.964" height="28" transform="rotate(30 53 152)" fill="#FF0523"/>
</svg>
