<svg width="512" height="512" viewBox="0 0 512 512" fill="none" xmlns="http://www.w3.org/2000/svg">
<path d="M388.114 95.9901C384.975 88.4091 376.606 79.3721 354.574 79.3721C339.623 79.3721 320.145 83.3981 299.629 90.6101L329.376 162.34C344.748 154.96 358.386 146.605 368.664 138.189C381.245 127.887 394.831 112.205 388.114 95.9901Z" fill="#F2F2F2"/>
<path d="M429.842 300.018H82.159C56.591 300.018 35.791 320.819 35.791 346.386C35.791 347.092 35.812 347.794 35.845 348.494C35.855 348.717 35.868 348.938 35.881 349.161C35.91 349.655 35.949 350.146 35.993 350.636C36.014 350.872 36.032 351.107 36.058 351.341C36.126 351.967 36.204 352.591 36.297 353.212C36.344 353.525 36.4 353.834 36.453 354.146C36.511 354.484 36.569 354.821 36.634 355.156C36.704 355.519 36.777 355.88 36.855 356.24C36.912 356.502 36.974 356.762 37.036 357.022C37.219 357.8 37.421 358.569 37.643 359.331C37.681 359.464 37.717 359.597 37.756 359.73C37.88 360.143 38.014 360.55 38.148 360.958C38.215 361.16 38.284 361.363 38.353 361.563C38.493 361.965 38.634 362.365 38.784 362.762C38.85 362.936 38.921 363.107 38.988 363.28C39.253 363.956 39.533 364.623 39.828 365.283C39.945 365.545 40.061 365.807 40.183 366.067C40.328 366.373 40.476 366.678 40.627 366.981C40.79 367.309 40.958 367.634 41.129 367.959C41.255 368.2 41.381 368.441 41.511 368.679C41.821 369.244 42.142 369.803 42.475 370.354C42.526 370.438 42.579 370.519 42.63 370.602C42.953 371.128 43.286 371.647 43.629 372.16C43.69 372.25 43.749 372.339 43.81 372.429C48.314 379.06 54.531 384.537 62.008 388.148C62.098 388.192 62.19 388.232 62.281 388.274C62.637 388.443 62.992 388.614 63.354 388.775L63.657 388.898C64.508 389.269 65.367 389.624 66.244 389.946L136.82 418.532C136.929 418.58 137.041 418.618 137.15 418.665C137.61 418.862 138.08 419.043 138.546 419.229C139.029 419.421 139.51 419.621 139.996 419.801C140.479 419.98 140.971 420.141 141.461 420.308C141.952 420.476 142.441 420.653 142.936 420.808C143.358 420.941 143.787 421.054 144.211 421.177C144.784 421.344 145.356 421.518 145.932 421.668C146.21 421.74 146.494 421.797 146.774 421.865C147.502 422.043 148.23 422.221 148.965 422.372C148.988 422.377 149.012 422.38 149.034 422.384C152.92 423.177 156.887 423.586 160.911 423.617C161.077 423.618 161.241 423.629 161.407 423.629H161.408H161.409H350.58C350.591 423.629 350.603 423.628 350.614 423.628C350.625 423.628 350.636 423.629 350.648 423.629C359.481 423.629 367.879 421.754 375.485 418.401L446.478 389.654C447.04 389.437 447.599 389.215 448.15 388.977L448.189 388.961L448.632 388.773C448.994 388.612 449.349 388.441 449.705 388.272C449.796 388.23 449.887 388.188 449.978 388.146C457.455 384.535 463.674 379.058 468.176 372.427C468.237 372.338 468.297 372.248 468.357 372.158C468.7 371.645 469.034 371.126 469.356 370.6C469.408 370.517 469.461 370.435 469.512 370.352C469.845 369.801 470.166 369.241 470.476 368.677C470.607 368.438 470.732 368.197 470.858 367.957C471.028 367.632 471.196 367.308 471.36 366.979C471.511 366.676 471.66 366.372 471.804 366.065C471.925 365.805 472.042 365.543 472.159 365.281C472.454 364.622 472.735 363.954 473 363.278C473.068 363.105 473.139 362.933 473.204 362.76C473.355 362.364 473.496 361.963 473.636 361.561C473.706 361.36 473.774 361.158 473.841 360.956C473.977 360.548 474.11 360.141 474.233 359.728C474.272 359.597 474.308 359.462 474.346 359.33C474.567 358.568 474.77 357.798 474.953 357.021C475.015 356.761 475.076 356.501 475.134 356.239C475.212 355.879 475.286 355.518 475.355 355.155C475.42 354.819 475.478 354.482 475.536 354.145C475.589 353.835 475.645 353.524 475.692 353.211C475.784 352.59 475.863 351.966 475.931 351.34C475.956 351.106 475.974 350.871 475.996 350.635C476.042 350.145 476.079 349.654 476.108 349.16C476.121 348.939 476.134 348.716 476.144 348.493C476.175 347.793 476.198 347.09 476.198 346.385C476.21 320.818 455.409 300.018 429.842 300.018ZM82.159 363.766C79.927 363.766 77.798 363.328 75.836 362.557L75.185 362.294C74.782 362.117 74.385 361.928 74 361.722C73.953 361.698 73.905 361.676 73.859 361.651C73.406 361.403 72.966 361.133 72.538 360.848C72.451 360.789 72.367 360.728 72.281 360.668C71.933 360.426 71.594 360.173 71.266 359.908C71.18 359.839 71.093 359.77 71.009 359.7C70.226 359.044 69.503 358.319 68.846 357.537C68.764 357.439 68.686 357.339 68.606 357.24C68.367 356.942 68.139 356.636 67.919 356.323C67.833 356.201 67.746 356.079 67.663 355.955C67.397 355.553 67.143 355.143 66.91 354.718C66.851 354.611 66.802 354.499 66.745 354.391C66.574 354.062 66.411 353.729 66.262 353.389C66.181 353.206 66.105 353.022 66.031 352.836C65.911 352.535 65.799 352.229 65.695 351.921C65.637 351.75 65.575 351.582 65.523 351.409C65.385 350.954 65.266 350.492 65.165 350.021C65.133 349.868 65.108 349.712 65.08 349.558C65.011 349.189 64.954 348.817 64.909 348.44C64.89 348.28 64.871 348.119 64.856 347.959C64.809 347.441 64.776 346.918 64.776 346.388C64.776 336.805 72.572 329.008 82.156 329.008C91.74 329.008 99.536 336.804 99.536 346.388C99.537 355.971 91.743 363.766 82.159 363.766ZM161.413 394.639C160.849 394.639 160.285 394.625 159.726 394.597C158.092 394.514 156.488 394.308 154.925 393.993C154.883 393.985 154.842 393.979 154.801 393.971C154.379 393.884 153.964 393.784 153.548 393.681C153.429 393.652 153.308 393.627 153.189 393.596C152.832 393.503 152.48 393.398 152.127 393.294C151.95 393.241 151.771 393.194 151.595 393.138C151.285 393.041 150.98 392.933 150.674 392.825C150.458 392.75 150.24 392.678 150.026 392.598C149.739 392.491 149.456 392.375 149.171 392.26C148.947 392.17 148.724 392.082 148.501 391.987C136.808 386.962 128.598 375.335 128.598 361.822C128.598 343.727 143.319 329.006 161.414 329.006C179.509 329.006 194.23 343.727 194.23 361.822C194.231 379.917 179.508 394.639 161.413 394.639ZM256.035 394.639C237.94 394.639 223.219 379.918 223.219 361.822C223.219 343.727 237.94 329.006 256.035 329.006C274.13 329.006 288.851 343.727 288.851 361.822C288.852 379.917 274.131 394.639 256.035 394.639ZM364.3 391.656L364.118 391.73L363.74 391.89C359.589 393.71 355.176 394.633 350.623 394.638C332.544 394.62 317.841 379.907 317.841 361.823C317.841 343.728 332.562 329.007 350.658 329.007C368.753 329.007 383.475 343.728 383.475 361.823C383.473 375.051 375.6 386.467 364.3 391.656ZM447.142 347.957C447.127 348.118 447.109 348.279 447.089 348.439C447.045 348.815 446.987 349.186 446.918 349.555C446.889 349.71 446.865 349.868 446.833 350.021C446.733 350.49 446.614 350.953 446.476 351.407C446.423 351.581 446.361 351.75 446.303 351.922C446.199 352.23 446.089 352.535 445.968 352.835C445.894 353.021 445.818 353.205 445.737 353.388C445.586 353.728 445.424 354.063 445.253 354.39C445.196 354.498 445.148 354.609 445.089 354.717C444.856 355.141 444.604 355.551 444.337 355.953C444.254 356.078 444.166 356.2 444.081 356.322C443.862 356.636 443.634 356.941 443.395 357.238C443.315 357.337 443.237 357.438 443.155 357.536C442.499 358.319 441.774 359.042 440.993 359.699C440.909 359.77 440.822 359.838 440.736 359.907C440.407 360.172 440.069 360.425 439.722 360.666C439.636 360.726 439.551 360.788 439.464 360.847C439.036 361.132 438.597 361.402 438.144 361.65C438.097 361.675 438.049 361.697 438.002 361.722C437.616 361.928 437.22 362.116 436.818 362.293L436.165 362.558C434.203 363.328 432.076 363.766 429.844 363.766C420.261 363.766 412.464 355.97 412.464 346.386C412.464 336.802 420.26 329.006 429.844 329.006C439.428 329.006 447.224 336.802 447.224 346.386C447.221 346.917 447.188 347.439 447.142 347.957Z" fill="#F2F2F2"/>
<path d="M441.792 251.717H422.444L376.599 188.782H266.644L301.507 174.342L271.441 101.844L61.603 188.78V214.066V253.066C37.403 257.89 15.637 271.178 0 291.144L22.821 309.019C37.251 290.596 58.878 280.031 82.159 280.031H429.84C453.121 280.031 474.748 290.597 489.178 309.019L511.999 291.144C494.531 268.838 469.411 254.858 441.792 251.717Z" fill="#F2F2F2"/>
<path d="M177.101 256V243.2L228.526 171.78H177V154H255.899V166.8L204.424 238.22H256V256H177.101Z" fill="#1C1C1C"/>
<rect x="42" y="144" width="510.964" height="28" transform="rotate(30 42 144)" fill="#FF0523"/>
</svg>
