<svg width="548" height="513" viewBox="0 0 548 513" fill="none" xmlns="http://www.w3.org/2000/svg">
<path d="M505.305 159.771L326.958 125.638L505.305 91.505C509.572 90.652 512.985 86.385 512.132 81.265C511.279 76.998 507.012 73.585 501.892 74.438L290.265 115.398V108.571C290.265 103.451 286.852 100.038 281.732 100.038H230.532C225.412 100.038 221.999 103.451 221.999 108.571V115.398L10.3716 74.437C5.25158 73.584 0.984576 76.997 0.131576 81.264C-0.721424 86.384 2.69158 90.651 6.95858 91.504L185.306 125.637L6.95758 159.771C2.69058 160.624 -0.722424 164.891 0.130576 170.011C0.983576 174.278 4.39758 176.838 8.66358 176.838C9.51658 176.838 9.51658 176.838 10.3706 176.838L221.998 135.878V142.705C221.998 147.825 225.411 151.238 230.531 151.238H247.598V168.305H230.531C230.531 163.185 227.118 159.772 221.998 159.772H179.331C174.211 159.772 170.798 163.185 170.798 168.305V202.438H136.665C131.545 202.438 128.132 205.851 128.132 210.971C128.132 216.091 131.545 219.504 136.665 219.504H179.332H187.865C176.772 228.891 170.798 243.397 170.798 258.757V279.237H8.66458C3.54458 279.237 0.131576 282.65 0.131576 287.77C0.131576 292.89 3.54458 296.303 8.66458 296.303H42.7976V304.836H41.0906C32.5576 304.836 25.7306 311.663 25.7306 320.196V340.676C25.7306 349.209 32.5576 356.036 41.0906 356.036H61.5706C70.1036 356.036 76.9306 349.209 76.9306 340.676V320.196C76.9306 311.663 70.1036 304.836 61.5706 304.836H59.8636V296.303H128.131V304.836H126.424C117.891 304.836 111.064 311.663 111.064 320.196V340.676C111.064 349.209 117.891 356.036 126.424 356.036H146.904C155.437 356.036 162.264 349.209 162.264 340.676V320.196C162.264 311.663 155.437 304.836 146.904 304.836H145.197V296.303H170.797V307.396C170.797 324.463 178.477 338.969 191.277 349.209L157.997 382.489C153.73 377.369 147.757 373.102 140.077 373.102H133.25C121.303 373.102 111.063 383.342 111.063 395.289V415.769C111.063 427.716 121.303 437.956 133.25 437.956H140.077C152.024 437.956 162.264 427.716 162.264 415.769V402.116L207.491 356.889C209.198 357.742 210.904 357.742 211.758 358.596L221.145 360.303C229.678 362.01 239.065 362.863 247.598 363.716V373.103H245.891C237.358 373.103 230.531 379.93 230.531 388.463V408.943C230.531 417.476 237.358 424.303 245.891 424.303H266.371C274.904 424.303 281.731 417.476 281.731 408.943V388.463C281.731 379.93 274.904 373.103 266.371 373.103H264.664V364.57C274.051 363.717 282.584 362.863 291.117 361.157L300.504 359.45C302.211 359.45 303.917 358.597 304.771 357.743L349.998 402.97V415.77C349.998 427.717 360.238 437.957 372.185 437.957H379.012C390.959 437.957 401.199 427.717 401.199 415.77V395.29C401.199 383.343 390.959 373.103 379.012 373.103H372.185C364.505 373.103 358.532 376.516 354.265 382.49L320.985 349.21C333.785 339.823 341.465 324.463 341.465 307.397V296.304H367.065V304.837H365.358C356.825 304.837 349.998 311.664 349.998 320.197V340.677C349.998 349.21 356.825 356.037 365.358 356.037H385.838C394.371 356.037 401.198 349.21 401.198 340.677V320.197C401.198 311.664 394.371 304.837 385.838 304.837H384.131V296.304H452.398V304.837H450.691C442.158 304.837 435.331 311.664 435.331 320.197V340.677C435.331 349.21 442.158 356.037 450.691 356.037H471.171C479.704 356.037 486.531 349.21 486.531 340.677V320.197C486.531 311.664 479.704 304.837 471.171 304.837H469.464V296.304H503.597C508.717 296.304 512.13 292.891 512.13 287.771C512.13 283.504 508.717 279.238 503.597 279.238H341.465V258.758C341.465 243.398 334.638 229.745 324.398 219.505H332.931H375.598C380.718 219.505 384.131 216.092 384.131 210.972C384.131 205.852 380.718 202.439 375.598 202.439H341.465V168.306C341.465 163.186 338.052 159.773 332.932 159.773H290.265C285.145 159.773 281.732 163.186 281.732 168.306H264.665V151.239H281.732C286.852 151.239 290.265 147.826 290.265 142.706V135.879L501.892 176.839C502.745 176.839 502.745 176.839 503.599 176.839C507.866 176.839 511.279 174.279 512.132 170.012C512.985 165.744 509.572 160.624 505.305 159.771ZM187.865 202.437V176.837H213.465V202.437H187.865ZM298.798 176.837H324.398V202.437H298.798V176.837ZM281.732 185.371V202.438H230.532V185.371H281.732Z" fill="#F2F2F2"/>
<path d="M216.101 330V317.2L267.526 245.78H216V228H294.899V240.8L243.424 312.22H295V330H216.101Z" fill="#1C1C1C"/>
<rect x="14" y="106" width="615.814" height="28" transform="rotate(30 14 106)" fill="#FF0523"/>
</svg>
