<svg width="284" height="512" viewBox="0 0 284 512" fill="none" xmlns="http://www.w3.org/2000/svg">
<path d="M282.347 155.111L222.179 7.891C220.174 2.984 216.641 0 212.839 0H71.1614C67.3594 0 63.8268 2.984 61.8204 7.891L1.65284 155.111C0.0178777 159.111 -0.428559 163.975 0.422832 168.502L62.768 499.891C64.1165 507.059 68.4301 512 73.3383 512H210.662C215.57 512 219.883 507.058 221.231 499.891L283.577 168.502C284.429 163.975 283.983 159.112 282.347 155.111Z" fill="#F2F2F2"/>
<path d="M94.0795 283V264.747L166.665 162.901H93.9375V137.545H205.301V155.798L132.645 257.645H205.443V283H94.0795Z" fill="#1C1C1C"/>
</svg>
