<svg width="466" height="443" viewBox="0 0 466 443" fill="none" xmlns="http://www.w3.org/2000/svg">
<path d="M410.407 443C410.407 351.706 376.664 302.503 324.282 278.83V443H410.407Z" fill="#F2F2F2"/>
<path d="M44.5938 443H128.225V279.518C78.8364 303.463 44.5938 353.203 44.5938 443Z" fill="#F2F2F2"/>
<path d="M227.002 306.816C199.594 306.816 174.62 299.077 152.171 285.678V443H300.336V286.582C279.384 299.423 253.786 306.816 227.002 306.816Z" fill="#F2F2F2"/>
<path d="M227.5 122.723C287.197 122.723 339.022 135.01 368.144 143.674C368.145 140.992 368.147 138.402 368.148 136.037C368.151 129.311 368.154 124.389 368.156 124.235C367.554 55.5112 316.856 0 252.874 0H204.752C140.772 0 87.4777 55.5112 86.8477 124.236C86.8492 124.39 86.8521 129.31 86.8551 136.028C86.8566 138.394 86.8581 140.988 86.8596 143.673C115.981 135.01 167.804 122.723 227.5 122.723Z" fill="#F2F2F2"/>
<path d="M90.3811 190.373C96.8944 188.372 103.469 186.54 110.08 184.827C120.134 240.57 168.861 282.871 227.5 282.871C286.278 282.871 335.1 240.369 344.992 184.427C351.576 186.141 358.119 187.976 364.601 189.977C365.813 190.352 367.038 190.52 368.241 190.51C373.314 190.468 377.999 187.177 379.575 182.07C380.657 178.569 380.048 174.955 378.219 172.091C376.748 169.786 374.238 167.966 371.421 167.096C355.092 162.053 339.25 157.904 321.29 154.619V170.799C321.29 194.634 301.848 213.957 278.011 213.957C258.724 213.957 242.173 201.399 236.926 183.859C232.421 168.806 237.327 151.391 227.69 150.967C218.052 151.389 222.928 168.806 218.423 183.859C213.173 201.4 196.016 213.957 176.729 213.957C152.89 213.957 132.718 194.634 132.718 170.799V155.028C116.255 158.325 99.4431 162.466 83.1045 167.482C80.4929 168.285 78.4889 169.906 77.0163 171.969C74.924 174.901 74.2221 178.734 75.361 182.443C76.9399 187.585 81.6977 190.891 86.8072 190.9C86.8161 190.9 86.8401 190.903 86.8491 190.903C88.0105 190.905 89.2107 190.733 90.3811 190.373Z" fill="#F2F2F2"/>
<path d="M173.14 114V103.459L244.745 44.6426H173V30H282.86V40.541L211.185 99.3574H283V114H173.14Z" fill="#1C1C1C"/>
<rect x="15.4092" y="72" width="528.505" height="28" transform="rotate(31.5154 15.4092 72)" fill="#FF0523"/>
</svg>
