<svg width="467" height="452" viewBox="0 0 467 452" fill="none" xmlns="http://www.w3.org/2000/svg">
<path d="M390.457 273.624L301.401 210.749C295.135 171.807 286.616 133.178 281.869 112.699C275.206 83.9462 268.132 56.7645 261.957 36.1639C251.602 1.60811 248.507 0 243.5 0C238.522 0 234.944 1.74687 224.527 36.144C218.377 56.4498 211.315 83.6415 204.647 112.709C196.567 147.931 190.036 181.488 185.437 210.86L96.5497 273.621C92.6818 276.347 89.877 281.763 89.877 286.496V341.377C89.877 347.138 94.0546 351.484 99.59 351.484C100.445 351.484 101.31 351.378 102.167 351.167L176.601 332.911V348.694C175.999 349.207 175.451 349.772 174.998 350.389L145.871 389.767C144.079 392.188 143.172 395.815 143.614 398.801L149.303 437.267C149.959 441.675 153.815 445 158.27 445H176.722C180.915 445 184.817 441.925 185.794 437.876L191.351 415.266H191.817L197.372 438.146C198.339 442.18 202.07 445 206.454 445H226.276C230.469 445 234.371 441.925 235.348 437.876L240.905 415.266H241.371L246.926 438.146C247.893 442.18 251.624 445 256.008 445H278.308C282.501 445 286.403 441.925 287.379 437.876L292.937 415.266H293.403L298.958 438.146C299.925 442.18 303.656 445 308.04 445H326.492C330.954 445 334.807 441.67 335.457 437.259L341.151 398.796C341.589 395.82 340.682 392.195 338.891 389.764L309.764 350.389C309.246 349.69 308.619 349.054 307.918 348.489V332.301L384.827 351.165C385.687 351.375 386.552 351.482 387.407 351.482C392.942 351.482 397.12 347.138 397.12 341.375V286.494C397.125 281.763 394.32 276.347 390.457 273.624ZM244.156 221.706C238.938 221.706 220.6 191.704 220.6 154.693C220.6 117.682 237.466 87.6803 244.156 87.6803C250.011 87.6803 267.713 117.682 267.713 154.693C267.713 191.704 248.946 221.706 244.156 221.706Z" fill="#F2F2F2"/>
<path d="M198.117 356V341.067L258.005 257.744H198V237H289.883V251.933L229.936 335.256H290V356H198.117Z" fill="#1C1C1C"/>
<rect x="15.4082" y="151" width="528.722" height="28" transform="rotate(31.5154 15.4082 151)" fill="#FF0523"/>
</svg>
