<svg width="512" height="512" viewBox="0 0 512 512" fill="none" xmlns="http://www.w3.org/2000/svg">
<g clip-path="url(#clip0_1138_25)">
<path d="M137.139 164.614L154.002 129.027C155.3 125.783 158.442 123.657 161.934 123.657H170.472V115.119C170.472 110.406 174.297 106.581 179.01 106.581H247.314C252.027 106.581 255.852 110.406 255.852 115.119V123.657H281.466C282.021 123.708 282.576 123.768 283.131 123.819L325.001 132.195H349.77C354.483 132.195 358.308 136.02 358.308 140.733V149.271H443.688C443.688 144.558 447.505 140.733 452.226 140.733H503.455C508.168 140.733 511.993 144.558 511.993 149.271V166.347C511.993 171.06 508.168 174.885 503.455 174.885H452.227C447.506 174.885 443.689 171.06 443.689 166.347H358.309V174.885C358.309 179.598 354.484 183.423 349.771 183.423H332.695H144.858C140.145 183.423 136.32 179.598 136.32 174.885V168.268C136.32 167.005 136.601 165.758 137.139 164.614Z" fill="#F2F2F2"/>
<path d="M25.3248 226.114H42.4008V209.038C42.4008 204.325 46.2258 200.5 50.9388 200.5H400.999C405.712 200.5 409.537 204.325 409.537 209.038V226.114H469.303C471.566 226.114 473.743 227.01 475.339 228.616L509.491 262.767C512.821 266.097 512.821 271.51 509.491 274.84L483.877 300.454C480.547 303.784 475.134 303.784 471.804 300.454L451.193 279.843C449.588 278.238 447.419 277.341 445.157 277.341H25.3248C20.6118 277.341 16.7868 273.516 16.7868 268.803V234.651C16.7868 229.939 20.6118 226.114 25.3248 226.114Z" fill="#F2F2F2"/>
<path d="M1.27441 323.456C5.5094 306.09 18.6064 294.418 33.8644 294.418C33.9414 294.418 34.0264 294.409 34.1034 294.418H426.852C442.109 294.418 455.207 306.09 459.442 323.456C463.361 339.55 458.665 360.272 439.625 370.133L379.859 404.285C378.57 405.028 377.11 405.412 375.624 405.412H85.0924C83.6064 405.412 82.1464 405.028 80.8574 404.285L21.3984 370.304C2.04242 360.272 -2.64459 339.55 1.27441 323.456Z" fill="#F2F2F2"/>
<path d="M188.142 366.455V348.202L260.727 246.355H188V221H299.364V239.253L226.707 341.099H299.506V366.455H188.142Z" fill="#1C1C1C"/>
<rect x="17.7168" y="154.446" width="510.964" height="28" transform="rotate(30 17.7168 154.446)" fill="#FF0523"/>
</g>
<defs>
<clipPath id="clip0_1138_25">
<rect width="511.994" height="511.994" fill="white"/>
</clipPath>
</defs>
</svg>
